<svg id="Layer_1" enable-background="new 0 0 512 512" height="512" viewBox="0 0 512 512" width="512" xmlns="http://www.w3.org/2000/svg"><g><g><g><g><g><g id="XMLID_490_"><g id="XMLID_491_"><g id="XMLID_492_"><g id="XMLID_493_"><g id="XMLID_503_"><g id="XMLID_527_"><g id="XMLID_528_"><g id="XMLID_529_"><g id="XMLID_589_"><g id="XMLID_590_"><g id="XMLID_636_"><g id="XMLID_667_"><g id="XMLID_1452_"><g id="XMLID_1453_"><g><path d="m512 256c0 22.37-2.87 44.07-8.26 64.75-5.75 22.06-43.238 36.893-54.308 56.213-17.5 30.55-12.242 63.227-40.292 84.197-42.71 31.93-95.72 50.84-153.14 50.84-141.38 0-256-114.62-256-256s114.62-256 256-256 256 114.62 256 256z" fill="#fff17d"/></g></g></g></g></g></g></g></g></g></g></g></g></g></g></g></g></g></g></g><path d="m251.296 107.878-17.213-17.201-67.919 158.289 92.02 92.195-46.803 49.794-113.831-11.497 127.873 130.716c10.028 1.195 20.228 1.826 30.577 1.826 57.42 0 110.43-18.91 153.14-50.84 28.05-20.97 22.792-53.647 40.292-84.197 11.07-19.32 48.558-34.153 54.308-56.213 5.39-20.68 8.26-42.38 8.26-64.75 0-2.668-.054-5.323-.135-7.972l-154.688-154.688s-103.09 10.644-105.881 14.538z" fill="#ecc173"/><g><path d="m374.495 139.611c-2.622-33.42-21.76-60.085-47.62-66.354-34.384-8.334-57.24 4.872-70.357 17.42-4.58 4.382-8.291 8.978-11.218 13.199-2.927-4.221-6.638-8.818-11.218-13.199-13.116-12.548-35.971-25.758-70.356-17.42-25.86 6.269-44.998 32.934-47.62 66.354-2.119 27.007 6.772 55.823 25.035 81.141 21.719 30.109 55.54 57.021 100.524 76.106l3.636 1.542 3.636-1.542c44.984-19.085 78.806-45.997 100.524-76.106 18.263-25.318 27.153-54.135 25.034-81.141z" fill="#ff4a4a"/><path d="m349.463 220.749c-21.723 30.113-55.545 57.02-100.527 76.108l-3.635 1.543v-194.522c2.924-4.225 6.64-8.819 11.22-13.199 13.112-12.548 35.968-25.754 70.353-17.424 25.861 6.271 44.995 32.937 47.618 66.356 2.119 27.008-6.767 55.82-25.029 81.138z" fill="#d0004f"/></g><g><path d="m202.005 376.349-65.25-49.05c-14.399-10.824-34.846-7.93-45.676 6.465-10.836 14.404-7.939 34.865 6.47 45.694l55.611 41.796c19.029 14.316 42.197 22.057 66.01 22.057h174.141v-65.407z" fill="#68463e"/><path d="m393.312 383.039v-34.732l-32.093-.266c-11.532-.096-22.89-2.825-33.207-7.98-5.781-2.889-12.156-4.393-18.618-4.393h-94.277c-13.081 0-23.686 10.604-23.686 23.686 0 13.081 10.604 23.686 23.686 23.686h178.195z" fill="#7f5345"/><path d="m503.74 320.75c-14.84 56.94-48.8 106.17-94.6 140.41h-49.83v-140.41z" fill="#b1d040"/><path d="m478.3 383.04c-17.5 30.55-41.11 57.15-69.16 78.12h-49.82v-78.12z" fill="#00a763"/></g></g></svg>