<svg id="Capa_1" enable-background="new 0 0 458.327 458.327" height="512" viewBox="0 0 458.327 458.327" width="512" xmlns="http://www.w3.org/2000/svg"><g><path d="m15.589 7.635h427.15c8.609 0 15.589 6.979 15.589 15.589v173.304c0 8.609-6.979 15.589-15.589 15.589h-427.15c-8.61-.001-15.589-6.98-15.589-15.59v-173.303c0-8.61 6.979-15.589 15.589-15.589z" fill="#ef5261"/><path d="m23.386 31.021h411.55v157.704h-411.55z" fill="#eeefee"/><g fill="#575b6d"><path d="m54.664 78.905h19.646c21.038 0 31.558 10.21 31.558 30.63 0 20.867-10.519 31.3-31.558 31.3h-19.646zm8.194 54.586h11.279c8.984 0 15.11-2.09 18.378-6.271 3.564-5.18 5.29-11.404 4.902-17.679.386-6.12-1.336-12.188-4.88-17.193-3.253-4.054-9.386-6.081-18.4-6.081h-11.279z"/><path d="m143.971 77.849c8.032-.269 15.79 2.932 21.295 8.786 5.706 6.356 8.679 14.703 8.278 23.235.401 8.532-2.572 16.879-8.278 23.235-11.804 11.731-30.865 11.731-42.669 0-5.724-6.339-8.714-14.681-8.323-23.213-.404-8.547 2.588-16.907 8.323-23.257 5.538-5.854 13.32-9.054 21.374-8.786zm-.084 57.011c5.803.172 11.383-2.242 15.231-6.59 4.232-5.181 6.352-11.768 5.936-18.445.416-6.673-1.695-13.258-5.914-18.445-3.8-4.332-9.331-6.748-15.091-6.59-5.827-.172-11.433 2.24-15.315 6.59-4.258 5.169-6.396 11.761-5.981 18.445-.402 6.665 1.725 13.236 5.958 18.4 3.818 4.363 9.379 6.803 15.175 6.657v-.022z"/><path d="m233.076 140.852h-8.384l-32.418-48.879v48.879h-7.825v-61.947h8.384l32.418 48.879v-48.879h7.825z"/><path d="m297.795 140.852h-9.256l-7.182-18.842h-25.923l-6.858 18.842h-8.664l23.783-61.936h8.831zm-18.841-25.348-10.899-28.729-10.385 28.718z"/><path d="m348.659 86.255h-20.491v54.597h-8.239v-54.597h-20.34v-7.35h49.047z"/><path d="m403.663 140.852h-46.173v-61.947h44.715v7.35h-36.521v18.926h34.179v7.35h-34.179v20.954h38.008z"/></g><path d="m376.438 249.844c-5.329-.05-10.403 2.275-13.845 6.344-2.272 2.708-3.518 6.129-3.521 9.664v-19.328c-.016-1.887-.378-3.755-1.068-5.511-2.789-6.539-9.275-10.724-16.382-10.569-5.14-.042-10.056 2.099-13.526 5.891-2.456 2.829-3.822 6.443-3.851 10.189v-16.533c.019-2.399-.573-4.763-1.722-6.869-3.094-5.783-9.171-9.342-15.728-9.211-9.229-.337-16.994 6.853-17.366 16.081v-58.582c-.809-9.613-9.257-16.75-18.87-15.941-8.49.714-15.227 7.45-15.941 15.941v110.144c-1.688-4.865-3.713-9.607-6.059-14.191-5.84-12.572-14.437-23.668-25.152-32.463l-.822-.604c-2.795-1.286-10.732-5.131-16.953.151-.925.828-1.775 1.737-2.538 2.716-1.916 4.255-1.765 9.156.408 13.286.33.453 1.884 4.002 2.13 4.376 5.317 15.051 8.22 30.848 8.602 46.805 2.13 24.99 52.993 86.965 52.747 91.665-.046 2.405.869 4.729 2.543 6.456h113.134c.885-.899 1.582-1.965 2.051-3.136l2.375-6.495c4.495-12.104 6.797-24.912 6.797-37.823v-86.445c-.41-9.231-8.211-16.39-17.443-16.008z" fill="#fed19a"/><path d="m259.749 392.116h128.617c3.05 0 5.522 2.472 5.522 5.522v47.532c0 3.05-2.472 5.522-5.522 5.522h-128.617c-3.05 0-5.522-2.472-5.522-5.522v-47.532c-.001-3.05 2.472-5.522 5.522-5.522z" fill="#575b6d"/><path d="m361.956 421.438c-.043-5.217 4.151-9.481 9.367-9.524 5.217-.043 9.481 4.151 9.524 9.367.043 5.217-4.151 9.481-9.367 9.524-.026 0-.052 0-.078 0-5.193.016-9.419-4.175-9.446-9.367z" fill="#9a9eaf"/></g></svg>