<svg height="512" viewBox="0 0 64 64" width="512" xmlns="http://www.w3.org/2000/svg"><g id="Filled_outline" data-name="Filled outline"><circle cx="31" cy="23" fill="#fcf05a" r="9"/><g fill="#f9bb4b"><path d="m33 28h-5a1 1 0 0 1 -1-1v-4a1 1 0 0 1 1-1h5a3 3 0 0 1 0 6zm-4-2h4a1 1 0 0 0 0-2h-4z"/><path d="m33 24h-5a1 1 0 0 1 -1-1v-4a1 1 0 0 1 1-1h5a3 3 0 0 1 0 6zm-4-2h4a1 1 0 0 0 0-2h-4z"/><path d="m25 26h3v2h-3z"/></g><path d="m28 13a3 3 0 0 0 -3 3 3 3 0 0 0 3 3h12l3 7h9l3-3h6v-14h-6l-15-6-9 10z" fill="#ffd782"/><path d="m46 26v6a3 3 0 0 1 -3 3 3 3 0 0 1 -3-3v-13l3 7z" fill="#f9bb4b"/><path d="m48.5 26.5h4a0 0 0 0 1 0 0v6a0 0 0 0 1 0 0h-4a3 3 0 0 1 -3-3 3 3 0 0 1 3-3z" fill="#d9833b" transform="matrix(0 -1 1 0 19.5 78.5)"/><path d="m30 12h12v2h-12z" fill="#f9bb4b"/><path d="m3 39h58v8h-58z" fill="#d3843d"/><path d="m5 47h54v14h-54z" fill="#ad6327"/><path d="m17 42h30v2h-30z" fill="#ad6327"/><path d="m14 58h-5a1 1 0 0 1 -1-1v-7h2v6h4z" fill="#66342e"/><path d="m16 56h2v2h-2z" fill="#66342e"/><path d="m56 58h-2v-6h-3v-2h4a1 1 0 0 1 1 1z" fill="#66342e"/><path d="m61 8h-5.808l-14.82-5.929a1 1 0 0 0 -1.115.26l-8.702 9.669h-2.555a4 4 0 0 0 -3.987 3.873 9.984 9.984 0 1 0 14.987 13.101v3.026a3.99 3.99 0 0 0 7.761 1.312 4 4 0 0 0 6.239-3.312v-3.586l2.414-2.414h5.586a1 1 0 0 0 1-1v-14a1 1 0 0 0 -1-1zm-30 23a7.986 7.986 0 0 1 -6.356-12.839 4 4 0 0 0 2.356 1.697v6.142h-2v2h8a2.987 2.987 0 0 0 2.22-5 2.908 2.908 0 0 0 .6-3h2.58a7.971 7.971 0 0 1 -7.4 11zm3-6a1 1 0 0 1 -1 1h-4v-2h4a1 1 0 0 1 1 1zm0-4a1 1 0 0 1 -1 1h-4v-2h4a1 1 0 0 1 1 1zm11 11a2 2 0 0 1 -4 0v-8.128l1.081 2.522a1 1 0 0 0 .919.606h2zm6-2a2 2 0 0 1 -4 0v-3h4zm9-8h-5a1 1 0 0 0 -.707.293l-2.707 2.707h-7.927l-2.74-6.394a.978.978 0 0 0 -.176-.269 1.948 1.948 0 0 0 -.247-.2.728.728 0 0 0 -.1-.046.916.916 0 0 0 -.2-.064c-.038-.008-.17-.03-.2-.03h-11.996a2 2 0 0 1 0-4h14v-1.997h-8.755l7.031-7.812 14.352 5.741a1.012 1.012 0 0 0 .372.071h5z"/><path d="m61 38h-58a1 1 0 0 0 -1 1v8a1 1 0 0 0 1 1h1v13a1 1 0 0 0 1 1h54a1 1 0 0 0 1-1v-13h1a1 1 0 0 0 1-1v-8a1 1 0 0 0 -1-1zm-3 22h-52v-12h52zm2-14h-56v-6h56z"/><path d="m17 42h30v2h-30z"/><path d="m9 58h5v-2h-4v-6h-2v7a1 1 0 0 0 1 1z"/><path d="m16 56h2v2h-2z"/><path d="m54 58h2v-7a1 1 0 0 0 -1-1h-4v2h3z"/></g></svg>