<?xml version="1.0" encoding="iso-8859-1"?>
<!-- Generator: Adobe Illustrator 19.0.0, SVG Export Plug-In . SVG Version: 6.00 Build 0)  -->
<svg version="1.1" id="Capa_1" xmlns="http://www.w3.org/2000/svg" xmlns:xlink="http://www.w3.org/1999/xlink" x="0px" y="0px"
	 viewBox="0 0 512.002 512.002" style="enable-background:new 0 0 512.002 512.002;" xml:space="preserve">
<path style="fill:#F3D1BB;" d="M109.217,155.918v81.984h-1.1c-16.08,0-29.115,13.026-29.115,29.095s13.035,29.095,29.115,29.095
	h1.126c1.09,57.937,48.42,104.57,106.656,104.57h20.999c0,0.195,0,6.339,0,6.364c0,9.673-0.123,9.392-9.366,10.693
	c-7.128,1.003-13.965,3.759-19.803,7.967c-11.552,8.327-18.542,21.95-18.542,36.186v42.634h135.628v-42.634
	c0-14.236-6.989-27.859-18.542-36.186c-5.837-4.208-12.675-6.964-19.803-7.967c-9.243-1.3-9.366-1.02-9.366-10.693
	c0-0.026,0-6.169,0-6.364h20.999c58.919,0,106.682-47.731,106.682-106.611V155.918H109.217z"/>
<path style="fill:#459DE5;" d="M324.812,461.873v42.633h-135.62v-42.633c0-14.239,6.984-27.861,18.534-36.184
	c3.73-2.688,7.867-4.783,12.231-6.205c2.463-0.805,5.005-1.399,7.578-1.766c3.769-0.531,6.022-0.789,7.367-1.579l1.728,0.383
	l4.356,2.462c9.846,5.58,21.881,5.619,31.766,0.109l4.622-2.571l1.728-0.383c1.345,0.789,3.597,1.047,7.367,1.579
	c2.573,0.367,5.115,0.961,7.578,1.766c4.364,1.422,8.501,3.517,12.231,6.205C317.829,434.012,324.812,447.634,324.812,461.873z"/>
<g>
	<ellipse style="fill:#E8979F;" cx="170.702" cy="322.931" rx="15.895" ry="15.884"/>
	<ellipse style="fill:#E8979F;" cx="343.302" cy="322.931" rx="15.895" ry="15.884"/>
</g>
<path style="fill:#E8C0A8;" d="M406.247,240.26h-1.456v-84.34h-42.176v138.127c0,58.887-47.755,106.61-106.681,106.61h42.176
	c58.913,0,106.681-47.723,106.681-106.61v-0.313h1.456c7.764,0,14.756-3.305,19.643-8.584c4.414-4.768,7.112-11.146,7.112-18.153
	l0,0C433.002,252.231,421.023,240.26,406.247,240.26z"/>
<path style="fill:#634228;" d="M361.694,44.994c-1.789-2.941-3.041-6.238-3.415-10.126c-0.831-8.639,3.332-16.542-2.926-24.383
	c-5.264-6.596-13.342-0.538-18.931,1.795c-7.337,3.062-14.655,4.478-22.781,5.332c-18.296,1.922-36.765,0.931-55.06,2.896
	c-63.485,6.817-149.229,28.022-149.229,107.149c0,0.058,0,131.014,0,131.014l31.186-19.51c1.46-0.913,2.347-2.514,2.347-4.235
	v-71.359c0-3.669,2.977-6.644,6.648-6.644h214.93c3.672,0,6.648,2.975,6.648,6.644v71.359c0,1.721,0.887,3.322,2.347,4.235
	l31.186,19.51V127.657c0-24.081-9.42-47.571-26.064-64.986C372.922,56.749,365.856,51.837,361.694,44.994z"/>
<path style="fill:#512C0E;" d="M404.652,127.657v131.016l-27.245-17.048V127.657c0-24.077-9.427-47.57-26.074-64.99
	c-5.651-5.913-12.725-10.83-16.887-17.673c-1.782-2.937-3.032-6.245-3.417-10.125c-0.691-7.189,2.088-13.886-0.598-20.436
	c2.008-0.611,4.002-1.329,5.997-2.153c5.585-2.339,13.656-8.398,18.921-1.794c6.263,7.84,2.101,15.746,2.925,24.383
	c0.386,3.88,1.636,7.189,3.417,10.125c4.162,6.843,11.236,11.759,16.887,17.673C395.224,80.087,404.652,103.58,404.652,127.657z"/>
<path d="M364.464,164.417h0.01H364.464z"/>
<g>
	<ellipse style="fill:#FFFFFF;" cx="191.552" cy="256.541" rx="65.42" ry="65.37"/>
	<ellipse style="fill:#FFFFFF;" cx="322.452" cy="256.541" rx="65.42" ry="65.37"/>
</g>
<path d="M431.395,290.241l0.001-0.001L431.395,290.241z"/>
<path d="M213.949,244.278c-4.142,0-7.5,3.356-7.5,7.495v28.156c0,4.139,3.358,7.495,7.5,7.495s7.5-3.356,7.5-7.495v-28.156
	C221.449,247.634,218.091,244.278,213.949,244.278z"/>
<path d="M300.055,244.278c-4.142,0-7.5,3.356-7.5,7.495v28.156c0,4.139,3.358,7.495,7.5,7.495s7.5-3.356,7.5-7.495v-28.156
	C307.555,247.634,304.197,244.278,300.055,244.278z"/>
<path d="M261.756,355.796h-9.508c-4.142,0-7.5,3.356-7.5,7.495s3.358,7.495,7.5,7.495h9.508c4.142,0,7.5-3.356,7.5-7.495
	S265.898,355.796,261.756,355.796z"/>
<path d="M412.287,233.309v-77.392c0-0.494-0.051-0.976-0.142-1.443v-26.818c0-25.878-10.256-51.451-28.14-70.162
	c-2.067-2.163-4.242-4.145-6.345-6.061c-3.776-3.442-7.343-6.692-9.557-10.332c-1.37-2.252-2.119-4.461-2.359-6.951
	c-0.203-2.111,0.017-4.407,0.249-6.837c0.59-6.174,1.325-13.857-4.777-21.502c-8.092-10.139-19.439-4.491-24.893-1.775
	c-1.035,0.515-2.012,1.002-2.792,1.327c-5.884,2.456-12.067,3.89-20.675,4.794c-8.787,0.923-17.913,1.159-26.739,1.388
	c-9.253,0.24-18.821,0.487-28.338,1.51c-42.864,4.603-75.973,13.544-101.217,27.333c-36.303,19.831-54.71,49.191-54.71,87.268
	v33.438c-0.086,0.455-0.136,0.922-0.136,1.401v68.482c-17.146,3.036-30.214,18.027-30.214,36.021
	c0,18.118,13.249,33.194,30.572,36.083c4.621,58.714,53.906,105.077,113.825,105.077h13.498c-0.002,0.581-0.006,1.177-0.017,1.728
	c-0.66,0.1-1.39,0.202-2.083,0.299l-0.811,0.114c-8.315,1.17-16.318,4.389-23.145,9.309c-13.559,9.774-21.654,25.574-21.654,42.265
	v42.634c0,4.139,3.358,7.495,7.5,7.495h135.628c4.142,0,7.5-3.356,7.5-7.495v-7.665c0-4.139-3.358-7.495-7.5-7.495
	s-7.5,3.356-7.5,7.495v0.17H196.688v-35.139c0-11.888,5.768-23.143,15.429-30.107c4.857-3.502,10.549-5.792,16.46-6.624l0.797-0.112
	c1.963-0.274,3.768-0.527,5.415-0.931c3.827,2.015,12.093,5.576,22.762,5.576c6.667,0,14.269-1.399,22.299-5.431
	c1.473,0.321,3.064,0.546,4.778,0.785l0.797,0.112c5.911,0.831,11.603,3.122,16.46,6.624c5.398,3.891,9.672,9.225,12.359,15.424
	c1.646,3.798,6.063,5.545,9.863,3.899c3.801-1.645,5.548-6.058,3.902-9.856c-3.76-8.677-9.759-16.155-17.349-21.625
	c-6.826-4.921-14.83-8.14-23.145-9.309l-0.811-0.114c-0.692-0.097-1.422-0.199-2.083-0.299c-0.011-0.551-0.015-1.146-0.017-1.728
	h13.498c60.722,0,110.517-47.614,113.982-107.443c7.352-1.28,14.18-4.936,19.308-10.474c5.873-6.343,9.107-14.598,9.107-23.244
	C440.502,250.182,428.303,236.17,412.287,233.309z M101.717,287.613c-8.8-2.735-15.215-10.934-15.215-20.616
	s6.414-17.881,15.215-20.616V287.613z M163.757,53.543c23.481-12.826,54.76-21.194,95.625-25.583
	c8.912-0.957,18.17-1.197,27.125-1.429c9.117-0.236,18.543-0.481,27.918-1.465c10.004-1.052,17.68-2.862,24.888-5.87
	c1.242-0.518,2.492-1.141,3.7-1.742c1.658-0.826,5.057-2.521,6.328-2.465c0.038,0.038,0.087,0.093,0.149,0.17
	c2.221,2.783,2.076,5.446,1.571,10.73c-0.276,2.885-0.588,6.155-0.248,9.697c0.458,4.756,1.92,9.107,4.472,13.302
	c3.333,5.48,7.875,9.619,12.269,13.623c2.003,1.825,3.895,3.549,5.604,5.338c15.244,15.95,23.987,37.75,23.987,59.809v117.479
	l-0.715-0.447c-2.299-14.178-8.646-27.012-17.819-37.282v-43.842c0-7.796-6.347-14.139-14.148-14.139H234.002
	c-4.142,0-7.5,3.356-7.5,7.495s3.358,7.495,7.5,7.495h129.61v30.137c-11.571-7.51-25.353-11.892-40.148-11.892
	c-29.17,0-54.441,16.973-66.461,41.552c-12.021-24.579-37.292-41.552-66.461-41.552c-14.798,0-28.583,4.384-40.155,11.896v-30.141
	h28.283c4.142,0,7.5-3.356,7.5-7.495s-3.358-7.495-7.5-7.495h-29.134c-7.801,0-14.148,6.342-14.148,14.139v43.849
	c-9.168,10.268-15.513,23.097-17.812,37.27l-0.232,0.145l-0.489-117.173C116.853,95.027,132.195,70.784,163.757,53.543z
	 M382.395,256.544c0,32.473-26.437,58.891-58.931,58.891s-58.931-26.418-58.931-58.891s26.436-58.891,58.931-58.891
	S382.395,224.071,382.395,256.544z M249.471,256.544c0,32.473-26.436,58.891-58.931,58.891s-58.931-26.418-58.931-58.891
	s26.437-58.891,58.931-58.891S249.471,224.071,249.471,256.544z M244.3,412.036c0.076-1.206,0.094-2.491,0.097-3.878h25.209
	c0.004,1.503,0.024,2.889,0.117,4.181C258.637,416.587,249.196,414.076,244.3,412.036z M298.105,393.168h-20.641
	c-0.119-0.006-0.237-0.018-0.358-0.018h-40.207c-0.121,0-0.239,0.012-0.358,0.018H215.9c-53.099,0-96.582-41.916-99.066-94.377
	c0.324-0.838,0.509-32.051,0.509-32.051c4.987,35.927,35.897,63.685,73.199,63.685c19.588,0,37.41-7.662,50.65-20.133v23.509
	c0,4.139,3.358,7.495,7.5,7.495h16.622c4.142,0,7.5-3.356,7.5-7.495s-3.358-7.495-7.5-7.495h-9.122v-35.845
	c0.274-0.527,0.55-1.053,0.811-1.588c12.021,24.579,37.292,41.552,66.461,41.552c38.655,0,70.456-29.806,73.647-67.625l0.051,0.032
	v30.903c0,0.429,0.044,0.847,0.114,1.256C396.768,349.212,352.48,393.168,298.105,393.168z M420.385,280.06L420.385,280.06
	c-2.268,2.449-5.039,4.219-8.098,5.221V248.73c7.666,2.538,13.215,9.765,13.215,18.267
	C425.502,271.858,423.685,276.497,420.385,280.06z"/>
<path d="M300.055,462.364h-23.959c-4.142,0-7.5,3.356-7.5,7.495s3.358,7.495,7.5,7.495h23.959c4.142,0,7.5-3.356,7.5-7.495
	S304.197,462.364,300.055,462.364z"/>
<g>
</g>
<g>
</g>
<g>
</g>
<g>
</g>
<g>
</g>
<g>
</g>
<g>
</g>
<g>
</g>
<g>
</g>
<g>
</g>
<g>
</g>
<g>
</g>
<g>
</g>
<g>
</g>
<g>
</g>
</svg>
