<?xml version="1.0"?>
<svg xmlns="http://www.w3.org/2000/svg" viewBox="0 0 512 512" width="512" height="512"><g id="Fill_out_line" data-name="Fill out line"><path d="M488,307.47V488H160V456l39.44-152.14014A111.05226,111.05226,0,0,1,280,224l24-16,24,16,56-40,40,8a136.19923,136.19923,0,0,1,64,115.47Z" style="fill:#ff6f35"/><path d="M488,307.47V488H368l72-184,42.36-35.3A135.71532,135.71532,0,0,1,488,307.47Z" style="fill:#e05e1d"/><path d="M256,40v0a16,16,0,0,0,16,16h48v48l15.09129-15.09129a15.36807,15.36807,0,0,1,19.39156-1.92014h0a15.36808,15.36808,0,0,1,3.76979,22.00787L344,128l40,24,15.11784-80.62846A40,40,0,0,0,359.803,24H272A16,16,0,0,0,256,40Z" style="fill:#f2e368"/><path d="M384,152v32l-56,40-24-16V184H264V128H232l40-72h48v48l15.09129-15.09129a15.36807,15.36807,0,0,1,19.39156-1.92014h0a15.36808,15.36808,0,0,1,3.76979,22.00787L344,128Z" style="fill:#ffc7cc"/><polygon points="304 208 280 224 304 256 328 224 304 208" style="fill:#ff8856"/><polygon points="384 184 328 224 344 256 424 192 384 184" style="fill:#ff8856"/><path d="M416,296,400,408H344v48h99.16525a16,16,0,0,0,15.619-12.52911L488,312v-4.52823A136.16975,136.16975,0,0,0,424.00006,192L424,192Z" style="fill:#ff6f35"/><polygon points="304 256 304 280 336 280 344 256 328 224 304 256" style="fill:#d9501a"/><path d="M342.74,408h-3.51a100.78806,100.78806,0,0,0-50.11,13.40991l1.99-18.98L304,280h32l5.89,112Z" style="fill:#e05e1d"/><path d="M342.74,408h-3.51a100.78806,100.78806,0,0,0-50.11,13.40991l1.99-18.98A116.85091,116.85091,0,0,1,339.23,392h2.66Z" style="fill:#d9501a"/><path d="M344,408h-4.775a100.41863,100.41863,0,0,0-62.731,22.00486l0,0A33.29,33.29,0,0,0,264,456v0h80Z" style="fill:#ffc7cc"/><polygon points="322.85 110.8 312 24 368 24 356.835 113.323 322.85 110.8" style="fill:gray"/><circle cx="340" cy="108" r="28" style="fill:#4d4d4d"/><path d="M256,456H69.11686a16,16,0,0,1-15.68929-12.86214l-25.6-128A16,16,0,0,1,43.51686,296H224Z" style="fill:#e6e6e6"/><path d="M256,488H72a16,16,0,0,1-16-16v0a16,16,0,0,1,16-16H256Z" style="fill:#ccc"/><rect x="240" y="456" width="200" height="32" rx="15.99998" ry="15.99998" style="fill:#b3b3b3"/><path d="M264.80353,437.2338,239.07924,308.61236A15.68928,15.68928,0,0,0,223.69464,296h0A15.68928,15.68928,0,0,0,208.31,314.7662L234.0343,443.38764A15.68928,15.68928,0,0,0,249.4189,456h0A15.68928,15.68928,0,0,0,264.80353,437.2338Z" style="fill:#ccc"/><circle cx="120" cy="376" r="24" style="fill:#f7f7f7"/><path d="M120,408a32,32,0,1,0-32-32A32.03635,32.03635,0,0,0,120,408Zm0-48a16,16,0,1,1-16,16A16.01833,16.01833,0,0,1,120,360Z"/><path d="M288,88h-8a8,8,0,0,0,0,16h8a8,8,0,0,0,0-16Z"/><path d="M477.92725,237.583a144.53241,144.53241,0,0,0-49.687-52.36719l-.01049.01685a7.96573,7.96573,0,0,0-2.66089-1.0774L392,177.44141V152.74268l14.98047-79.897a48.00892,48.00892,0,0,0-33.8374-54.95923A7.991,7.991,0,0,0,368,16H272a23.99173,23.99173,0,0,0-11.85,44.85742l-35.14318,63.25781A7.99988,7.99988,0,0,0,232,136h24v12.15479l-36.99756,29.59814a8.00034,8.00034,0,0,0-1.65869,10.68457l16,24,13.3125-8.875L234.7251,185.665,256,168.645V184a8.00008,8.00008,0,0,0,8,8h32v11.71875l-19.34106,12.894A118.47459,118.47459,0,0,0,196.223,288H43.13867a23.68969,23.68969,0,0,0-23.23,28.33594L45.63281,444.95605a23.60338,23.60338,0,0,0,7.14075,12.69434A23.98869,23.98869,0,0,0,72,496H488a8.00008,8.00008,0,0,0,8-8V307.47168A144.52588,144.52588,0,0,0,477.92725,237.583Zm-13.99414,7.75586A128.48769,128.48769,0,0,1,480,307.47168v3.65039L450.97461,441.73535A7.95278,7.95278,0,0,1,443.165,448H352V416h72V400H409.224l14.69543-102.86816-15.83886-2.26368L393.06152,400H350.32666l-6.2583-118.907,6.77393-20.32178,73.61108-58.88892A128.52221,128.52221,0,0,1,463.93311,245.33887ZM273.29468,448a25.17747,25.17747,0,0,1,8.197-11.748A92.77343,92.77343,0,0,1,336,416.06934V448Zm-31.41577-6.18164L216.15479,313.19727a7.689,7.689,0,0,1,7.54-9.19727,7.70973,7.70973,0,0,1,7.53956,6.18164L256.959,438.80273A7.68969,7.68969,0,0,1,249.419,448,7.70984,7.70984,0,0,1,241.87891,441.81836ZM326.6333,239.15527l8.72925,17.4585L330.23389,272H312V258.66626ZM311.20215,288h17.208L334.311,400.11914a108.77384,108.77384,0,0,0-35.73475,7.82446ZM346.73,243.57129l-8.51758-17.03516,47.61719-34.01172,19.76709,3.95313ZM384.42725,43.56348a31.90686,31.90686,0,0,1,6.82763,26.333l-12.999,69.32715-11.655-6.99292a35.90988,35.90988,0,0,0,1.7323-46.39966l6.27527-50.20141A31.981,31.981,0,0,1,384.42725,43.56348ZM340,88a20,20,0,1,1-20,20A20.0226,20.0226,0,0,1,340,88Zm18.9375-56-5.33423,42.677a35.90125,35.90125,0,0,0-27.20654,0L321.0625,32ZM272,32h32.938l2,16H272a8,8,0,0,1,0-16Zm0,144V128a8.00008,8.00008,0,0,0-8-8H245.59619L276.707,64h32.231l2.72888,21.83105a35.976,35.976,0,0,0,40.12646,56.17481L376,156.52979V179.8833l-48.15674,34.39746L312,203.71875V187.314l21.65674-21.65673-11.31348-11.31446L300.686,176Zm32,41.61523,12.52588,8.35059L304,242.667l-12.52588-16.70117Zm-27.11938,15.5586L296,258.66626v20.91333l-14.42676,137.052a107.50333,107.50333,0,0,0-10.07715,7.12622c-.36.28809-.70214.5918-1.0509.89014L246.92383,307.043A23.74639,23.74639,0,0,0,224,288.01367V288H213.62848A102.48394,102.48394,0,0,1,276.88062,233.17383ZM35.59814,313.19727a7.58321,7.58321,0,0,1,1.59327-6.38282A7.66559,7.66559,0,0,1,43.13867,304H201.28845a23.62392,23.62392,0,0,0-.82312,12.33594L226.18945,444.957a23.483,23.483,0,0,0,.84717,3.043H72a24.09785,24.09785,0,0,0-3.13721.21167V448a7.71026,7.71026,0,0,1-7.54052-6.18262ZM64,472a8.00917,8.00917,0,0,1,8-8H233.37622a23.94021,23.94021,0,0,0,0,16H72A8.00917,8.00917,0,0,1,64,472Zm192,8a8,8,0,0,1,0-16H424a8,8,0,0,1,0,16Zm190.62378,0a23.97856,23.97856,0,0,0-.08618-16.25244,23.82237,23.82237,0,0,0,20.05615-18.54151L480,384.87817V480Z"/></g></svg>
