<svg height="496pt" viewBox="0 -4 496 496" width="496pt" xmlns="http://www.w3.org/2000/svg"><path d="m472 8h-256c-8.800781 0-16 7.199219-16 16v280c0 8.800781 7.199219 16 16 16h256c8.800781 0 16-7.199219 16-16v-280c0-8.800781-7.199219-16-16-16zm-232 74.699219c0-19.097657 15.5-34.699219 34.699219-34.699219h138.699219c19.101562 0 34.703124 15.5 34.703124 34.699219v138.699219c0 19.101562-15.5 34.703124-34.703124 34.703124h-138.699219c-19.097657 0-34.699219-15.5-34.699219-34.703124zm-32 205.300781" fill="#d1d3d4"/><path d="m274.699219 48h138.699219c19.101562 0 34.703124 15.5 34.703124 34.699219v138.699219c0 19.101562-15.5 34.703124-34.703124 34.703124h-138.699219c-19.097657 0-34.699219-15.5-34.699219-34.703124v-138.699219c0-19.199219 15.5-34.699219 34.699219-34.699219zm0 0" fill="#006df0"/><path d="m413.300781 257h-138.601562c-19.699219 0-35.699219-16-35.699219-35.699219v-138.601562c0-19.699219 16-35.699219 35.699219-35.699219h138.699219c19.601562 0 35.601562 16 35.601562 35.699219v138.699219c0 19.601562-16 35.601562-35.699219 35.601562zm-138.601562-208c-18.597657 0-33.699219 15.101562-33.699219 33.699219v138.699219c0 18.601562 15.101562 33.703124 33.699219 33.703124h138.699219c18.601562 0 33.703124-15.101562 33.703124-33.703124v-138.699219c0-18.597657-15.101562-33.699219-33.703124-33.699219zm0 0" fill="#231f20"/><path d="m152 176h-144v144h144zm-112 32h80v32h-80zm-24 80" fill="#d1d3d4"/><path d="m40 208h80v32h-80zm0 0" fill="#a7a9ac"/><path d="m48 480h400v-128h-400zm32-104h336v80h-336zm0 0" fill="#d1d3d4"/><path d="m416 376h-336v80h336zm-88 72v-32h-168 168zm0 0" fill="#a7a9ac"/><g fill="#231f20"><path d="m472 0h-256c-13.300781 0-24 10.699219-24 24v56h-40c-13.300781 0-24 10.699219-24 24 0 4.398438-3.601562 8-8 8h-48c-13.300781 0-24 10.699219-24 24s10.699219 24 24 24c4.398438 0 8 3.601562 8 8h-72c-4.398438 0-8 3.601562-8 8v144c0 1.398438.5 2.800781 1.199219 4-.800781 1.199219-1.199219 2.601562-1.199219 4v48c0 22.101562 17.898438 40 40 40v64c0 4.398438 3.601562 8 8 8h400c4.398438 0 8-3.601562 8-8v-128c0-4.398438-3.601562-8-8-8h-400c-4.398438 0-8 3.601562-8 8v48c-13.300781 0-24-10.699219-24-24v-48h136c4.398438 0 8-3.601562 8-8v-144c0-4.398438-3.601562-8-8-8h-56c0-13.300781-10.699219-24-24-24-4.398438 0-8-3.601562-8-8s3.601562-8 8-8h48c13.300781 0 24-10.699219 24-24 0-4.398438 3.601562-8 8-8h40v208c0 13.300781 10.699219 24 24 24h256c13.300781 0 24-10.699219 24-24v-280c0-13.300781-10.699219-24-24-24zm-416 360h384v112h-384zm88-48h-128v-16h128zm0-128v96h-128v-96zm64-160c0-4.398438 3.601562-8 8-8h256c4.398438 0 8 3.601562 8 8v256h-272zm272 280c0 4.398438-3.601562 8-8 8h-256c-4.398438 0-8-3.601562-8-8v-8h272zm0 0"/><path d="m413.300781 40h-138.601562c-23.597657 0-42.699219 19.101562-42.699219 42.699219v138.699219c0 23.5 19.101562 42.601562 42.699219 42.703124h138.699219c23.5 0 42.601562-19.101562 42.703124-42.703124v-138.699219c-.101562-23.597657-19.203124-42.699219-42.800781-42.699219zm26.699219 181.300781c0 14.699219-11.898438 26.597657-26.699219 26.699219h-138.601562c-14.699219 0-26.597657-11.898438-26.699219-26.699219v-138.601562c0-14.699219 11.898438-26.597657 26.699219-26.699219h138.699219c14.703124 0 26.601562 11.898438 26.703124 26.699219v138.601562zm0 0"/><path d="m32 200c-4.398438 0-8 3.601562-8 8s3.601562 8 8 8v24c0 4.398438 3.601562 8 8 8h80c4.398438 0 8-3.601562 8-8v-24c4.398438 0 8-3.601562 8-8s-3.601562-8-8-8zm80 32h-64v-16h64zm0 0"/><path d="m416 368h-336c-4.398438 0-8 3.601562-8 8v80c0 4.398438 3.601562 8 8 8h336c4.398438 0 8-3.601562 8-8v-80c0-4.398438-3.601562-8-8-8zm-8 16v24h-72v-24zm-88 0v24h-64v-24zm-80 0v24h-72v-24zm-152 0h64v24h-64zm0 64v-24h64v24zm80 0v-24h72v24zm88 0v-24h64v24zm152 0h-72v-24h72zm0 0"/></g></svg>