<?xml version="1.0" encoding="iso-8859-1"?>
<!-- Generator: Adobe Illustrator 19.0.0, SVG Export Plug-In . SVG Version: 6.00 Build 0)  -->
<svg version="1.1" id="Capa_1" xmlns="http://www.w3.org/2000/svg" xmlns:xlink="http://www.w3.org/1999/xlink" x="0px" y="0px"
	 viewBox="0 0 512 512" style="enable-background:new 0 0 512 512;" xml:space="preserve">
<path style="fill:#424242;" d="M485.508,105.931h-185.37v220.69h-52.966v-220.69H26.492C11.864,105.931,0,117.795,0,132.423V485.5
	C0,500.136,11.864,512,26.492,512H485.5c14.636,0,26.5-11.864,26.5-26.492V132.423C512,117.795,500.136,105.931,485.508,105.931z"/>
<polygon style="fill:#EFC586;" points="300.138,167.724 247.172,167.724 105.931,167.724 105.931,450.207 450.207,450.207 
	450.207,167.724 "/>
<rect y="167.724" style="fill:#757575;" width="105.931" height="282.483"/>
<rect x="35.31" y="291.31" style="fill:#FFFFFF;" width="35.31" height="35.31"/>
<g>
	<path style="fill:#B2B2B2;" d="M70.621,256H35.31c-4.873,0-8.828-3.946-8.828-8.828s3.955-8.828,8.828-8.828h35.31
		c4.873,0,8.828,3.946,8.828,8.828S75.494,256,70.621,256z"/>
	<path style="fill:#B2B2B2;" d="M70.621,220.69H35.31c-4.873,0-8.828-3.946-8.828-8.828c0-4.882,3.955-8.828,8.828-8.828h35.31
		c4.873,0,8.828,3.946,8.828,8.828C79.448,216.744,75.494,220.69,70.621,220.69z"/>
	<path style="fill:#B2B2B2;" d="M70.621,414.897H35.31c-4.873,0-8.828-3.946-8.828-8.828c0-4.882,3.955-8.828,8.828-8.828h35.31
		c4.873,0,8.828,3.946,8.828,8.828C79.448,410.951,75.494,414.897,70.621,414.897z"/>
	<path style="fill:#B2B2B2;" d="M70.621,379.586H35.31c-4.873,0-8.828-3.946-8.828-8.828c0-4.882,3.955-8.828,8.828-8.828h35.31
		c4.873,0,8.828,3.946,8.828,8.828C79.448,375.64,75.494,379.586,70.621,379.586z"/>
</g>
<rect x="247.172" y="44.138" style="fill:#757575;" width="52.966" height="282.483"/>
<path style="fill:#424242;" d="M291.31,44.138H256V17.655C256,7.901,263.901,0,273.655,0l0,0c9.754,0,17.655,7.901,17.655,17.655
	V44.138z"/>
<path style="fill:#FFFFFF;" d="M273.655,406.069c-4.873,0-8.828-3.946-8.828-8.828v-35.31c0-4.882,3.955-8.828,8.828-8.828
	c4.873,0,8.828,3.946,8.828,8.828v35.31C282.483,402.123,278.528,406.069,273.655,406.069z"/>
<rect x="256" y="326.621" style="fill:#424242;" width="35.31" height="35.31"/>
<g>
</g>
<g>
</g>
<g>
</g>
<g>
</g>
<g>
</g>
<g>
</g>
<g>
</g>
<g>
</g>
<g>
</g>
<g>
</g>
<g>
</g>
<g>
</g>
<g>
</g>
<g>
</g>
<g>
</g>
</svg>
