<svg id="Capa_1" enable-background="new 0 0 512 512" height="512" viewBox="0 0 512 512" width="512" xmlns="http://www.w3.org/2000/svg"><g><g><path d="m155.214 166.688c-.909 0-1.832-.164-2.731-.509-3.924-1.509-5.881-5.913-4.372-9.836l17.12-44.511c5.612-14.592 19.887-24.396 35.52-24.396h34.449c4.204 0 7.611 3.408 7.611 7.611 0 4.204-3.408 7.611-7.611 7.611h-34.448c-9.38 0-17.944 5.883-21.312 14.638l-17.12 44.511c-1.164 3.024-4.048 4.881-7.106 4.881z" fill="#f1cb86"/></g><g><path d="m327.467 293.932h184.532v41.007h-184.532z" fill="#2b3890" transform="matrix(0 1 -1 0 734.169 -105.299)"/></g><g><path d="m440.237 428.655v-228.44c0-5.05 3.714-9.332 8.713-10.047l51.465-7.352c6.114-.873 11.584 3.871 11.584 10.047v243.144c0 6.176-5.47 10.92-11.584 10.047l-51.465-7.352c-4.999-.715-8.713-4.997-8.713-10.047z" fill="#3d4fc3"/></g><g><path d="m491.496 184.091v260.688l8.92 1.274c6.114.873 11.584-3.871 11.584-10.047v-243.143c0-6.176-5.47-10.92-11.584-10.047z" fill="#3342aa"/></g><g><path d="m378.726 447.708h-287.05c-11.324 0-20.504-9.18-20.504-20.504v-225.54c0-11.324 9.18-20.504 20.504-20.504h287.05c11.324 0 20.504 9.18 20.504 20.504v225.54c0 11.325-9.18 20.504-20.504 20.504z" fill="#78d0b1"/></g><g><path d="m378.726 181.162h-23.579c11.324 0 20.504 9.18 20.504 20.504v225.54c0 11.324-9.18 20.504-20.504 20.504h23.579c11.324 0 20.504-9.18 20.504-20.504v-225.54c0-11.324-9.18-20.504-20.504-20.504z" fill="#66b49d"/></g><g><path d="m7.611 201.665h63.561v73.813h-63.561z" fill="#3d4fc3"/></g><g><path d="m112.18 181.162 8.026-25.684c1.324-4.237 5.248-7.122 9.687-7.122h58.891c4.439 0 8.363 2.885 9.687 7.122l8.026 25.684z" fill="#3d4fc3"/></g><g><path d="m177.791 386.301v-143.732c0-5.605 4.544-10.149 10.149-10.149h160.134c5.605 0 10.149 4.544 10.149 10.149v143.731c0 5.605-4.544 10.149-10.149 10.149h-160.134c-5.605 0-10.149-4.543-10.149-10.148z" fill="#dd5790"/></g><g><path d="m333.618 396.449v-164.028h14.456c5.605 0 10.149 4.544 10.149 10.149v143.731c0 5.605-4.544 10.149-10.149 10.149h-14.456z" fill="#da387d"/></g><g><path d="m220.849 95.047c0-16.986 13.77-30.755 30.755-30.755h133.273c16.986 0 30.755 13.77 30.755 30.755 0 16.986-13.77 30.755-30.755 30.755h-133.273c-16.986 0-30.755-13.77-30.755-30.755z" fill="#3d4fc3"/></g><g><path d="m396.083 66.406c.71 2.593 1.096 5.319 1.096 8.137 0 16.986-13.77 30.755-30.755 30.755h-133.273c-3.956 0-7.733-.755-11.206-2.115 3.568 13.036 15.491 22.619 29.659 22.619h133.273c16.986 0 30.755-13.77 30.755-30.755.001-13.031-8.106-24.16-19.549-28.641z" fill="#3342aa"/></g><g><path d="m112.18 386.301v-143.732c0-5.605 4.544-10.149 10.149-10.149h12.508c5.605 0 10.149 4.544 10.149 10.149v143.731c0 5.605-4.544 10.149-10.149 10.149h-12.508c-5.606 0-10.149-4.543-10.149-10.148z" fill="#3d4fc3"/></g><g><path d="m227 354.742v-80.614c0-5.766 6.29-9.327 11.234-6.361l67.179 40.307c4.802 2.881 4.802 9.84 0 12.721l-67.179 40.307c-4.944 2.968-11.234-.594-11.234-6.36z" fill="#f4fbff"/></g><g><path d="m7.611 302.568c-4.204 0-7.611-3.408-7.611-7.611v-112.77c0-4.204 3.408-7.611 7.611-7.611s7.611 3.408 7.611 7.611v112.77c.001 4.203-3.407 7.611-7.611 7.611z" fill="#2b3890"/></g></g></svg>